<mxfile host="app.diagrams.net">
  <diagram name="HomeLab Network" id="homelab-net">
    <mxGraphModel dx="827" dy="544" grid="1" gridSize="10" guides="1" tooltips="1" connect="1" arrows="1" fold="1" page="1" pageScale="1" pageWidth="850" pageHeight="1100">
      <root>
        <mxCell id="0"/>
        <mxCell id="1" parent="0"/>

        <mxCell id="internet" value="Internet" style="shape=ellipse;whiteSpace=wrap;html=1;" vertex="1" parent="1">
          <mxGeometry x="40" y="120" width="80" height="40" as="geometry"/>
        </mxCell>
        <mxCell id="opnsense" value="OPNsense&#10;10.20.10.1" style="shape=rectangle;whiteSpace=wrap;html=1;" vertex="1" parent="1">
          <mxGeometry x="180" y="120" width="100" height="60" as="geometry"/>
        </mxCell>
        <mxCell id="core" value="Core Switch&#10;10Gb SFP+" style="shape=rectangle;whiteSpace=wrap;html=1;" vertex="1" parent="1">
          <mxGeometry x="340" y="120" width="120" height="60" as="geometry"/>
        </mxCell>
        <mxCell id="poe" value="PoE Switch&#10;Uplink 10Gb" style="shape=rectangle;whiteSpace=wrap;html=1;" vertex="1" parent="1">
          <mxGeometry x="500" y="120" width="120" height="60" as="geometry"/>
        </mxCell>

        <mxCell id="proxmox" value="Proxmox&#10;10.20.10.2" style="shape=rectangle;whiteSpace=wrap;html=1;" vertex="1" parent="1">
          <mxGeometry x="340" y="220" width="100" height="40" as="geometry"/>
        </mxCell>
        <mxCell id="nas" value="Dell NAS&#10;10.20.10.10" style="shape=rectangle;whiteSpace=wrap;html=1;" vertex="1" parent="1">
          <mxGeometry x="340" y="280" width="100" height="40" as="geometry"/>
        </mxCell>
        <mxCell id="utility" value="Utility VM&#10;10.20.10.20" style="shape=rectangle;whiteSpace=wrap;html=1;" vertex="1" parent="1">
          <mxGeometry x="340" y="340" width="100" height="40" as="geometry"/>
        </mxCell>
        <mxCell id="pihole" value="Pi-hole&#10;10.20.10.53" style="shape=rectangle;whiteSpace=wrap;html=1;" vertex="1" parent="1">
          <mxGeometry x="340" y="400" width="100" height="40" as="geometry"/>
        </mxCell>
        <mxCell id="llm" value="LLM VM&#10;10.20.10.30" style="shape=rectangle;whiteSpace=wrap;html=1;" vertex="1" parent="1">
          <mxGeometry x="340" y="460" width="100" height="40" as="geometry"/>
        </mxCell>

        <mxCell id="ps5" value="PS5&#10;10.20.10.151" style="shape=rectangle;whiteSpace=wrap;html=1;" vertex="1" parent="1">
          <mxGeometry x="500" y="220" width="100" height="40" as="geometry"/>
        </mxCell>
        <mxCell id="switchconsole" value="Nintendo Switch&#10;10.20.10.152" style="shape=rectangle;whiteSpace=wrap;html=1;" vertex="1" parent="1">
          <mxGeometry x="500" y="280" width="120" height="40" as="geometry"/>
        </mxCell>
        <mxCell id="xbox" value="Xbox Series X&#10;10.20.10.153" style="shape=rectangle;whiteSpace=wrap;html=1;" vertex="1" parent="1">
          <mxGeometry x="500" y="340" width="120" height="40" as="geometry"/>
        </mxCell>

        <mxCell id="ap1" value="Wi-Fi 7 AP1&#10;10.20.10.100" style="shape=ellipse;whiteSpace=wrap;html=1;" vertex="1" parent="1">
          <mxGeometry x="660" y="220" width="100" height="40" as="geometry"/>
        </mxCell>
        <mxCell id="ap2" value="Wi-Fi 7 AP2&#10;10.20.10.101" style="shape=ellipse;whiteSpace=wrap;html=1;" vertex="1" parent="1">
          <mxGeometry x="660" y="280" width="100" height="40" as="geometry"/>
        </mxCell>
        <mxCell id="ap3" value="Wi-Fi 7 AP3&#10;10.20.10.102" style="shape=ellipse;whiteSpace=wrap;html=1;" vertex="1" parent="1">
          <mxGeometry x="660" y="340" width="100" height="40" as="geometry"/>
        </mxCell>

        <mxCell id="printer" value="3D Printer (WiFi)&#10;10.20.10.150" style="shape=ellipse;dashed=1;whiteSpace=wrap;html=1;" vertex="1" parent="1">
          <mxGeometry x="800" y="280" width="120" height="40" as="geometry"/>
        </mxCell>

        <mxCell id="edge1" edge="1" source="internet" target="opnsense" style="endArrow=block;"/>
        <mxCell id="edge2" edge="1" source="opnsense" target="core" style="endArrow=block;"/>
        <mxCell id="edge3" edge="1" source="core" target="poe" style="endArrow=block;"/>
        <mxCell id="edge4" edge="1" source="core" target="proxmox" style="endArrow=block;"/>
        <mxCell id="edge5" edge="1" source="core" target="nas" style="endArrow=block;"/>
        <mxCell id="edge6" edge="1" source="core" target="utility" style="endArrow=block;"/>
        <mxCell id="edge7" edge="1" source="core" target="pihole" style="endArrow=block;"/>
        <mxCell id="edge8" edge="1" source="core" target="llm" style="endArrow=block;"/>
        <mxCell id="edge9" edge="1" source="core" target="ps5" style="endArrow=block;"/>
        <mxCell id="edge10" edge="1" source="core" target="switchconsole" style="endArrow=block;"/>
        <mxCell id="edge11" edge="1" source="core" target="xbox" style="endArrow=block;"/>
        <mxCell id="edge12" edge="1" source="poe" target="ap1" style="endArrow=block;"/>
        <mxCell id="edge13" edge="1" source="poe" target="ap2" style="endArrow=block;"/>
        <mxCell id="edge14" edge="1" source="poe" target="ap3" style="endArrow=block;"/>
        <mxCell id="edge15" edge="1" source="ap2" target="printer" style="endArrow=block;dashed=1;"/>
      </root>
    </mxGraphModel>
  </diagram>
</mxfile>